<?xml version="1.0" standalone="no"?>
<!DOCTYPE svg PUBLIC "-//W3C//DTD SVG 20010904//EN"
 "http://www.w3.org/TR/2001/REC-SVG-20010904/DTD/svg10.dtd">
<svg version="1.0" xmlns="http://www.w3.org/2000/svg"
 width="512.000000pt" height="512.000000pt" viewBox="0 0 512.000000 512.000000"
 preserveAspectRatio="xMidYMid meet">
<metadata>
Created by potrace 1.14, written by Peter Selinger 2001-2017
</metadata>
<g transform="translate(0.000000,512.000000) scale(0.100000,-0.100000)"
fill="#000000" stroke="none">
<path d="M2370 5104 c-294 -35 -497 -79 -685 -148 -144 -54 -383 -173 -508
-255 -393 -257 -702 -606 -907 -1026 -208 -426 -294 -911 -245 -1383 62 -591
316 -1123 735 -1542 400 -400 885 -642 1455 -727 166 -24 523 -24 690 0 566
83 1056 327 1455 727 280 279 481 601 608 971 186 540 188 1105 6 1649 -216
646 -680 1177 -1289 1475 -361 177 -678 253 -1080 260 -110 2 -216 1 -235 -1z
m-621 -518 c124 -151 355 -315 570 -406 142 -61 253 -88 507 -124 137 -20 301
-49 364 -66 431 -112 724 -343 735 -578 2 -65 3 -65 48 -98 105 -76 219 -218
272 -339 48 -108 65 -192 72 -350 10 -247 -28 -538 -100 -765 l-24 -75 -75 1
c-57 1 -85 7 -124 26 l-49 24 -12 99 c-14 112 -52 250 -93 341 -134 296 -505
546 -927 625 -122 23 -296 28 -628 19 -105 -2 -149 1 -229 18 -98 22 -376 111
-429 139 -16 8 -31 12 -34 9 -12 -11 223 -149 343 -201 l73 -32 -82 -27 c-318
-105 -563 -301 -698 -559 -68 -130 -91 -208 -96 -331 l-6 -108 -46 -21 c-28
-12 -76 -22 -123 -25 -75 -4 -77 -4 -82 19 -71 326 -92 565 -65 756 16 117 72
329 108 407 36 80 32 90 -36 82 l-43 -6 19 50 c29 77 65 131 118 181 l49 46
-38 43 c-45 50 -84 129 -99 202 -15 68 -5 263 18 383 l18 90 23 -61 c12 -34
29 -67 37 -74 13 -11 15 -7 15 24 0 64 31 188 61 249 31 60 56 97 119 176 34
43 220 204 227 197 2 -2 -8 -25 -22 -52 -14 -27 -28 -67 -32 -89 l-6 -40 108
113 c100 105 194 182 221 182 6 0 39 -33 73 -74z m142 -2846 c223 -17 278 -30
523 -120 77 -28 178 -36 247 -20 30 7 102 32 161 56 139 57 201 71 388 85 173
13 403 7 605 -16 135 -15 328 -64 353 -89 11 -10 15 -39 15 -98 1 -112 -5
-127 -53 -134 -44 -7 -42 -1 -55 -159 -9 -95 -41 -235 -72 -314 -61 -155 -165
-276 -264 -305 -72 -22 -523 -24 -610 -3 -186 45 -349 256 -436 562 l-29 100
-47 24 c-43 21 -52 23 -88 12 -22 -7 -48 -20 -58 -30 -10 -10 -35 -72 -56
-137 -64 -204 -129 -319 -239 -422 -122 -114 -158 -123 -502 -123 -218 0 -246
2 -295 20 -176 67 -301 298 -334 616 -10 101 -16 149 -18 150 -1 1 -20 6 -42
11 -37 8 -40 12 -48 54 -4 25 -5 73 -2 108 8 78 13 81 165 120 101 26 174 36
415 55 92 8 250 6 376 -3z"/>
<path d="M1530 1653 c-203 -15 -306 -61 -351 -158 -25 -54 -25 -179 0 -327 38
-220 96 -346 187 -406 66 -44 147 -56 338 -49 263 9 331 30 433 133 116 118
208 358 201 531 -3 72 -7 86 -33 125 -40 56 -135 104 -247 125 -76 13 -444 31
-528 26z"/>
<path d="M3205 1643 c-246 -29 -336 -66 -391 -158 -31 -54 -32 -152 -3 -278
64 -270 194 -433 380 -474 97 -21 443 -24 508 -5 86 26 176 140 215 272 28 94
56 279 56 367 0 163 -64 236 -237 269 -69 13 -437 18 -528 7z"/>
</g>
</svg>
